<svg width="25" height="28" viewBox="0 0 25 28" fill="none" xmlns="http://www.w3.org/2000/svg">
<g id="Bag 1">
<path id="Vector" fill-rule="evenodd" clip-rule="evenodd" d="M12.5 0.208336C9.33016 0.208336 6.76046 2.77803 6.76046 5.94792V6.47445C6.30051 6.56524 5.87537 6.69486 5.46708 6.88203C4.25217 7.43897 3.22368 8.33449 2.5049 9.46122C2.06986 10.1432 1.81171 10.9061 1.60892 11.8367C1.41024 12.7485 1.25236 13.8852 1.05151 15.3313L1.04039 15.4114C0.78192 17.2724 0.579864 18.7271 0.518494 19.8989C0.456183 21.0887 0.531561 22.0802 0.88947 22.9904C1.47445 24.4781 2.55456 25.7186 3.94767 26.5027C4.80001 26.9824 5.77168 27.1935 6.95869 27.2954C8.12779 27.3958 9.59651 27.3958 11.4753 27.3958H13.5248C15.4036 27.3958 16.8723 27.3958 18.0414 27.2954C19.2284 27.1935 20.2001 26.9824 21.0524 26.5027C22.4455 25.7186 23.5256 24.4781 24.1106 22.9904C24.4685 22.0802 24.5439 21.0887 24.4816 19.8989C24.4202 18.7271 24.2182 17.2723 23.9597 15.4113L23.9486 15.3313C23.7477 13.8852 23.5898 12.7485 23.3912 11.8367C23.1884 10.9061 22.9302 10.1432 22.4952 9.46122C21.7764 8.33449 20.7479 7.43897 19.533 6.88203C19.1247 6.69486 18.6996 6.56524 18.2396 6.47445V5.94792C18.2396 2.77803 15.6699 0.208336 12.5 0.208336ZM7.66671 12.8958C7.1662 12.8958 6.76046 12.4901 6.76046 11.9896V8.33513C6.56365 8.38967 6.38721 8.45409 6.22239 8.52965C5.32441 8.94131 4.56422 9.60321 4.03295 10.436C3.75871 10.8659 3.55961 11.3977 3.37986 12.2226C3.1977 13.0585 3.04875 14.1265 2.84163 15.6178C2.57592 17.5309 2.38533 18.9088 2.32851 19.9937C2.27216 21.0697 2.35474 21.7638 2.57626 22.3271C3.00864 23.4268 3.80698 24.3437 4.83667 24.9232C5.36421 25.2201 6.04027 25.3974 7.1138 25.4896C8.19624 25.5826 9.58724 25.5833 11.5188 25.5833H13.4813C15.4128 25.5833 16.8038 25.5826 17.8863 25.4896C18.9598 25.3974 19.6359 25.2201 20.1634 24.9232C21.1931 24.3437 21.9914 23.4268 22.4238 22.3271C22.6453 21.7638 22.7279 21.0697 22.6716 19.9937C22.6147 18.9088 22.4242 17.5309 22.1585 15.6178C21.9513 14.1265 21.8024 13.0585 21.6202 12.2226C21.4405 11.3977 21.2414 10.8659 20.9671 10.436C20.4359 9.60321 19.6757 8.94131 18.7777 8.52965C18.6129 8.45409 18.4364 8.38967 18.2396 8.33513V11.9896C18.2396 12.4901 17.8339 12.8958 17.3334 12.8958C16.8329 12.8958 16.4271 12.4901 16.4271 11.9896V8.09874C15.6612 8.06312 14.7159 8.0625 13.4813 8.0625H11.5188C10.2841 8.0625 9.33886 8.06312 8.57296 8.09874V11.9896C8.57296 12.4901 8.16722 12.8958 7.66671 12.8958ZM13.536 6.25C14.6717 6.24999 15.6201 6.24999 16.4271 6.28462V5.94792C16.4271 3.77905 14.6689 2.02084 12.5 2.02084C10.3312 2.02084 8.57296 3.77905 8.57296 5.94792V6.28462C9.37998 6.24999 10.3284 6.24999 11.464 6.25H13.536Z" fill="#242424"/>
</g>
</svg>
