<svg width="28" height="28" viewBox="0 0 28 28" fill="none" xmlns="http://www.w3.org/2000/svg">
<g id="Close">
<path id="Vector" d="M27.1781 2.67808C27.6907 2.16551 27.6907 1.33449 27.1781 0.821922C26.6656 0.309359 25.8345 0.309359 25.322 0.821922L14 12.1439L2.67808 0.821928C2.16551 0.309364 1.33449 0.309364 0.821922 0.821928C0.309359 1.33449 0.309359 2.16552 0.821922 2.67808L12.1439 14L0.821969 25.3219C0.309406 25.8345 0.309406 26.6655 0.821969 27.1781C1.33453 27.6906 2.16556 27.6906 2.67812 27.1781L14 15.8562L25.3219 27.1781C25.8345 27.6906 26.6655 27.6906 27.1781 27.1781C27.6906 26.6655 27.6906 25.8345 27.1781 25.3219L15.8562 14L27.1781 2.67808Z" fill="#2D264B"/>
</g>
</svg>
