<svg width="18" height="18" viewBox="0 0 18 18" fill="none" xmlns="http://www.w3.org/2000/svg">
<path d="M14.6478 4.14775C14.8674 3.92808 14.8674 3.57192 14.6478 3.35225C14.4281 3.13258 14.0719 3.13258 13.8523 3.35225L9.00001 8.20452L4.14775 3.35225C3.92808 3.13258 3.57192 3.13258 3.35225 3.35225C3.13258 3.57192 3.13258 3.92808 3.35225 4.14775L8.20451 9.00001L3.35227 13.8523C3.1326 14.0719 3.1326 14.4281 3.35227 14.6477C3.57194 14.8674 3.9281 14.8674 4.14777 14.6477L9.00001 9.79551L13.8523 14.6477C14.0719 14.8674 14.4281 14.8674 14.6477 14.6477C14.8674 14.4281 14.8674 14.0719 14.6477 13.8523L9.7955 9.00001L14.6478 4.14775Z" fill="#FF0000"/>
</svg>
