<svg width="16" height="32" viewBox="0 0 16 32" fill="none" xmlns="http://www.w3.org/2000/svg">
<g id="Left 2">
<path id="Vector" d="M14.7412 4.08717C15.5257 3.30961 15.5314 2.04329 14.7538 1.25877C13.9762 0.474241 12.7099 0.468592 11.9254 1.24615L7.13945 5.98958C5.33686 7.7761 3.86359 9.23622 2.81878 10.5372C1.7323 11.8901 0.945813 13.2633 0.735717 14.9116C0.643596 15.6343 0.643596 16.3657 0.735716 17.0884C0.945813 18.7367 1.7323 20.1099 2.81878 21.4628C3.86359 22.7638 5.33683 24.2239 7.13941 26.0104L11.9254 30.7538C12.7099 31.5314 13.9762 31.5257 14.7538 30.7412C15.5314 29.9567 15.5257 28.6904 14.7412 27.9128L10.0399 23.2533C8.13195 21.3623 6.82315 20.0609 5.93754 18.9581C5.07728 17.8869 4.78216 17.1989 4.70361 16.5827C4.6543 16.1957 4.6543 15.8042 4.70361 15.4173C4.78216 14.8011 5.07728 14.1131 5.93754 13.0419C6.82314 11.9391 8.13195 10.6377 10.0399 8.74665L14.7412 4.08717Z" fill="#2D264B"/>
</g>
</svg>
