<svg width="206" height="29" viewBox="0 0 206 29" fill="none" xmlns="http://www.w3.org/2000/svg">
<path d="M14.9814 23L13.6631 18.3564H6.76367L5.40137 23H0.0693359L7.15918 1.8623H13.7363L20.8408 23H14.9814ZM10.1035 6.62305L7.78906 14.4893H12.6523L10.3818 6.62305H10.1035ZM32.6123 6.44727C34.6729 6.44727 36.2793 7.18457 37.4316 8.65918C38.5938 10.124 39.1748 12.1846 39.1748 14.8408C39.1748 17.4971 38.6084 19.5625 37.4756 21.0371C36.3428 22.5117 34.7607 23.249 32.7295 23.249C31.5576 23.249 30.5518 23.0098 29.7119 22.5312C28.8721 22.043 28.2617 21.3643 27.8809 20.4951H27.6025V28.3906H22.4316V6.69629H27.4707V9.34766H27.749C28.1494 8.43945 28.7793 7.73145 29.6387 7.22363C30.498 6.70605 31.4893 6.44727 32.6123 6.44727ZM28.4082 18.0342C28.9648 18.7959 29.7363 19.1768 30.7227 19.1768C31.709 19.1768 32.4756 18.7959 33.0225 18.0342C33.5791 17.2627 33.8574 16.1982 33.8574 14.8408C33.8574 13.4932 33.5791 12.4385 33.0225 11.6768C32.4658 10.9053 31.6992 10.5195 30.7227 10.5195C29.7461 10.5195 28.9746 10.9053 28.4082 11.6768C27.8516 12.4482 27.5732 13.5078 27.5732 14.8555C27.5732 16.2129 27.8516 17.2725 28.4082 18.0342ZM51.0928 6.44727C53.1533 6.44727 54.7598 7.18457 55.9121 8.65918C57.0742 10.124 57.6553 12.1846 57.6553 14.8408C57.6553 17.4971 57.0889 19.5625 55.9561 21.0371C54.8232 22.5117 53.2412 23.249 51.21 23.249C50.0381 23.249 49.0322 23.0098 48.1924 22.5312C47.3525 22.043 46.7422 21.3643 46.3613 20.4951H46.083V28.3906H40.9121V6.69629H45.9512V9.34766H46.2295C46.6299 8.43945 47.2598 7.73145 48.1191 7.22363C48.9785 6.70605 49.9697 6.44727 51.0928 6.44727ZM46.8887 18.0342C47.4453 18.7959 48.2168 19.1768 49.2031 19.1768C50.1895 19.1768 50.9561 18.7959 51.5029 18.0342C52.0596 17.2627 52.3379 16.1982 52.3379 14.8408C52.3379 13.4932 52.0596 12.4385 51.5029 11.6768C50.9463 10.9053 50.1797 10.5195 49.2031 10.5195C48.2266 10.5195 47.4551 10.9053 46.8887 11.6768C46.332 12.4482 46.0537 13.5078 46.0537 14.8555C46.0537 16.2129 46.332 17.2725 46.8887 18.0342ZM59.5391 23V0.587891H64.71V23H59.5391ZM74.7529 9.99219C73.9033 9.99219 73.2051 10.2705 72.6582 10.8271C72.1113 11.374 71.8037 12.1064 71.7354 13.0244H77.6533C77.6143 12.0771 77.3359 11.335 76.8184 10.7979C76.3105 10.2607 75.6221 9.99219 74.7529 9.99219ZM77.8438 18.1953H82.5752C82.292 19.7871 81.4521 21.0518 80.0557 21.9893C78.6592 22.917 76.9062 23.3809 74.7969 23.3809C72.1992 23.3809 70.1826 22.6484 68.7471 21.1836C67.3213 19.709 66.6084 17.6338 66.6084 14.958C66.6084 12.2725 67.3262 10.1631 68.7617 8.62988C70.207 7.08691 72.1943 6.31543 74.7236 6.31543C77.2334 6.31543 79.1865 7.04297 80.583 8.49805C81.9795 9.94336 82.6777 11.9648 82.6777 14.5625V15.998H71.7061V16.2617C71.7256 17.3262 72.0234 18.166 72.5996 18.7812C73.1758 19.3965 73.957 19.7041 74.9434 19.7041C75.6953 19.7041 76.3203 19.5723 76.8184 19.3086C77.3262 19.0449 77.668 18.6738 77.8438 18.1953ZM94.5664 16.7744H84.9277V12.1455H94.5664V16.7744Z" fill="#fff"/>
<path d="M97.6367 23V6.69629H102.676V9.3916H102.954C103.267 8.44434 103.828 7.69727 104.639 7.15039C105.449 6.59375 106.387 6.31543 107.451 6.31543C108.613 6.31543 109.58 6.58398 110.352 7.12109C111.123 7.64844 111.665 8.40527 111.978 9.3916H112.256C112.598 8.46387 113.208 7.72168 114.087 7.16504C114.976 6.59863 115.991 6.31543 117.134 6.31543C118.735 6.31543 120.02 6.82324 120.986 7.83887C121.963 8.84473 122.451 10.1826 122.451 11.8525V23H117.28V13.1709C117.28 11.4229 116.494 10.5488 114.922 10.5488C114.189 10.5488 113.604 10.793 113.164 11.2812C112.734 11.7695 112.52 12.4141 112.52 13.2148V23H107.568V13.083C107.568 12.2627 107.368 11.6377 106.968 11.208C106.567 10.7686 105.991 10.5488 105.239 10.5488C104.517 10.5488 103.931 10.8027 103.481 11.3105C103.032 11.8184 102.808 12.4824 102.808 13.3027V23H97.6367ZM131.176 19.6309C131.996 19.6309 132.685 19.3916 133.241 18.9131C133.808 18.4346 134.091 17.8438 134.091 17.1406V16.0713L131.352 16.2471C130.59 16.3057 130.009 16.4814 129.608 16.7744C129.208 17.0674 129.008 17.458 129.008 17.9463C129.008 18.4639 129.203 18.874 129.594 19.1768C129.994 19.4795 130.521 19.6309 131.176 19.6309ZM129.286 23.249C127.714 23.249 126.439 22.7998 125.463 21.9014C124.496 20.9932 124.013 19.7969 124.013 18.3125C124.013 16.8281 124.569 15.666 125.683 14.8262C126.806 13.9766 128.422 13.4883 130.531 13.3613L134.091 13.1562V11.8818C134.091 11.3252 133.891 10.8955 133.49 10.5928C133.1 10.2803 132.548 10.124 131.835 10.124C130.458 10.124 129.599 10.5635 129.257 11.4424H124.599C124.716 9.86035 125.448 8.61035 126.796 7.69238C128.144 6.77441 129.921 6.31543 132.128 6.31543C134.374 6.31543 136.112 6.80371 137.343 7.78027C138.573 8.75684 139.188 10.124 139.188 11.8818V23H134.149V20.9785H133.871C133.51 21.6719 132.914 22.2236 132.084 22.6338C131.254 23.0439 130.321 23.249 129.286 23.249ZM141.629 23V6.69629H146.668V9.37695H146.946C147.151 8.53711 147.62 7.83887 148.353 7.28223C149.095 6.72559 149.964 6.44727 150.96 6.44727C151.819 6.44727 152.444 6.53027 152.835 6.69629V11.1055C152.356 10.9102 151.614 10.8125 150.608 10.8125C149.446 10.8125 148.519 11.125 147.825 11.75C147.142 12.375 146.8 13.249 146.8 14.3721V23H141.629ZM159.641 12.79L164.27 6.69629H170.07L164.255 13.6982L170.466 23H164.431L160.358 16.7598L159.362 17.8877V23H154.191V0.587891H159.362V12.79H159.641ZM177.784 9.99219C176.935 9.99219 176.236 10.2705 175.689 10.8271C175.143 11.374 174.835 12.1064 174.767 13.0244H180.685C180.646 12.0771 180.367 11.335 179.85 10.7979C179.342 10.2607 178.653 9.99219 177.784 9.99219ZM180.875 18.1953H185.606C185.323 19.7871 184.483 21.0518 183.087 21.9893C181.69 22.917 179.938 23.3809 177.828 23.3809C175.23 23.3809 173.214 22.6484 171.778 21.1836C170.353 19.709 169.64 17.6338 169.64 14.958C169.64 12.2725 170.357 10.1631 171.793 8.62988C173.238 7.08691 175.226 6.31543 177.755 6.31543C180.265 6.31543 182.218 7.04297 183.614 8.49805C185.011 9.94336 185.709 11.9648 185.709 14.5625V15.998H174.737V16.2617C174.757 17.3262 175.055 18.166 175.631 18.7812C176.207 19.3965 176.988 19.7041 177.975 19.7041C178.727 19.7041 179.352 19.5723 179.85 19.3086C180.357 19.0449 180.699 18.6738 180.875 18.1953ZM188.721 2.96094H193.892V6.91602H197.173V10.7686H193.892V17.375C193.892 18.5957 194.551 19.2061 195.869 19.2061C196.318 19.2061 196.753 19.1816 197.173 19.1328V22.8242C196.538 22.9609 195.713 23.0293 194.697 23.0293C192.559 23.0293 191.025 22.6826 190.098 21.9893C189.18 21.2861 188.721 20.1338 188.721 18.5322V10.7686H186.216V6.91602H188.721V2.96094ZM202.675 23.4834C201.767 23.4834 201.049 23.2295 200.521 22.7217C199.994 22.2041 199.73 21.5303 199.73 20.7002C199.73 19.8604 199.994 19.1865 200.521 18.6787C201.049 18.1611 201.767 17.9023 202.675 17.9023C203.593 17.9023 204.315 18.1611 204.843 18.6787C205.37 19.1865 205.634 19.8604 205.634 20.7002C205.634 21.5303 205.37 22.2041 204.843 22.7217C204.315 23.2295 203.593 23.4834 202.675 23.4834Z" fill="#5B4E8F"/>
</svg>
