<svg width="16" height="17" viewBox="0 0 16 17" fill="none" xmlns="http://www.w3.org/2000/svg">
<path fill-rule="evenodd" clip-rule="evenodd" d="M9.51356 3.23542C11.5092 3.20171 13.4639 4.06773 14.6869 5.66178C14.8651 5.8941 15.0417 6.17986 15.3473 6.67432L15.3691 6.70951C15.3723 6.7147 15.3755 6.71991 15.3788 6.72513C15.4153 6.78418 15.4533 6.84549 15.4823 6.90528C15.759 7.47562 15.5658 8.14909 15.0208 8.51381C14.9637 8.55205 14.898 8.58741 14.8348 8.62147C14.8292 8.62449 14.8236 8.62749 14.818 8.63049L9.86337 11.3024L12.7741 16.0114C12.9404 16.2804 12.8417 16.6244 12.5537 16.7798C12.2657 16.9351 11.8973 16.8429 11.731 16.5739L8.82029 11.8649L3.86564 14.5367C3.86008 14.5397 3.8545 14.5428 3.8489 14.5458C3.78569 14.5799 3.72006 14.6154 3.65606 14.6425C3.04543 14.9009 2.3244 14.7204 1.93392 14.2115C1.89298 14.1581 1.85511 14.0967 1.81863 14.0376C1.81541 14.0324 1.81221 14.0272 1.80901 14.022L1.78726 13.9868C1.48161 13.4924 1.30496 13.2066 1.17868 12.9463C0.311994 11.1596 0.486657 9.14499 1.51629 7.54744L1.42946 7.40697C0.154499 5.34433 0.91112 2.70685 3.11942 1.51599C5.32773 0.325122 8.15147 1.03183 9.42644 3.09447L9.51356 3.23542ZM8.19895 3.38986C7.81335 3.47503 7.43207 3.59569 7.06026 3.75304C6.78155 3.87099 6.47562 4.03598 5.94624 4.32147L4.30625 5.20586C3.77688 5.49132 3.47094 5.65629 3.22222 5.82276C2.89076 6.04462 2.58851 6.29244 2.31695 6.56147C1.6023 5.08637 2.18885 3.31685 3.72165 2.49026C5.25454 1.66363 7.18865 2.07403 8.19895 3.38986ZM9.22412 4.37456C10.9404 4.24536 12.6585 4.94931 13.7078 6.31707C13.8471 6.49859 13.9926 6.73263 14.326 7.27201C14.3503 7.31136 14.3648 7.33479 14.3754 7.35265C14.3821 7.364 14.3855 7.37027 14.3855 7.37027C14.4244 7.45137 14.3971 7.54686 14.3199 7.59891C14.3199 7.59891 14.3136 7.60276 14.3017 7.60944C14.283 7.61995 14.2579 7.63349 14.2158 7.65621L8.73961 10.6093L3.26342 13.5625C3.22129 13.5852 3.1962 13.5987 3.17709 13.6086C3.16571 13.6145 3.16023 13.6171 3.15852 13.6179C3.07129 13.6548 2.96874 13.6289 2.91295 13.5562C2.91496 13.5588 2.91284 13.5564 2.90216 13.5398C2.89091 13.5223 2.87641 13.4989 2.85209 13.4595C2.51868 12.9201 2.37444 12.6854 2.27577 12.482C1.53101 10.9467 1.73935 9.20164 2.72154 7.87714C3.04177 7.44532 3.44441 7.05808 3.92379 6.73722C4.11813 6.60714 4.36869 6.47123 4.94617 6.15982L6.5108 5.31607C7.08828 5.00465 7.33957 4.86992 7.55735 4.77776C8.09732 4.54924 8.66071 4.41698 9.22412 4.37456Z" fill="white"/>
</svg>
