<svg width="18" height="18" viewBox="0 0 18 18" fill="none" xmlns="http://www.w3.org/2000/svg">
<g id="ph:plus-light">
<path id="Vector" d="M15.6094 9C15.6094 9.11189 15.5649 9.21919 15.4858 9.29831C15.4067 9.37743 15.2994 9.42188 15.1875 9.42188H9.42188V15.1875C9.42188 15.2994 9.37743 15.4067 9.29831 15.4858C9.21919 15.5649 9.11189 15.6094 9 15.6094C8.88811 15.6094 8.78081 15.5649 8.70169 15.4858C8.62257 15.4067 8.57812 15.2994 8.57812 15.1875V9.42188H2.8125C2.70061 9.42188 2.59331 9.37743 2.51419 9.29831C2.43507 9.21919 2.39063 9.11189 2.39062 9C2.39062 8.88811 2.43507 8.78081 2.51419 8.70169C2.59331 8.62257 2.70061 8.57812 2.8125 8.57812H8.57812V2.8125C8.57812 2.70061 8.62257 2.59331 8.70169 2.51419C8.78081 2.43507 8.88811 2.39063 9 2.39062C9.11189 2.39063 9.21919 2.43507 9.29831 2.51419C9.37743 2.59331 9.42188 2.70061 9.42188 2.8125V8.57812H15.1875C15.2994 8.57812 15.4067 8.62257 15.4858 8.70169C15.5649 8.78081 15.6094 8.88811 15.6094 9Z" fill="#242424"/>
</g>
</svg>
