<svg width="16" height="32" viewBox="0 0 16 32" fill="none" xmlns="http://www.w3.org/2000/svg">
<g id="Right 2">
<path id="Vector" d="M4.07464 1.24615C3.29011 0.468591 2.0238 0.474241 1.24624 1.25877C0.468683 2.04329 0.474333 3.30961 1.25886 4.08717L5.96011 8.74665C7.86809 10.6377 9.1769 11.9391 10.0625 13.0419C10.9228 14.1131 11.2179 14.8011 11.2964 15.4173C11.3457 15.8042 11.3457 16.1957 11.2964 16.5827C11.2179 17.1989 10.9228 17.8869 10.0625 18.9581C9.1769 20.0608 7.86809 21.3623 5.96011 23.2533L1.25886 27.9128C0.474333 28.6904 0.468683 29.9567 1.24624 30.7412C2.0238 31.5257 3.29011 31.5314 4.07464 30.7538L8.86059 26.0104C10.6632 24.2239 12.1365 22.7638 13.1813 21.4628C14.2677 20.1099 15.0542 18.7367 15.2643 17.0884C15.3564 16.3657 15.3564 15.6343 15.2643 14.9116C15.0542 13.2633 14.2677 11.8901 13.1813 10.5372C12.1364 9.23622 10.6632 7.7761 8.86058 5.98957L4.07464 1.24615Z" fill="#2D264B"/>
</g>
</svg>
