<svg width="18" height="18" viewBox="0 0 18 18" fill="none" xmlns="http://www.w3.org/2000/svg">
<path d="M15.4321 5.61012C15.631 5.37146 15.5988 5.01677 15.3601 4.81789C15.1215 4.61901 14.7668 4.65125 14.5679 4.88991L10.5249 9.74152C9.71276 10.7161 9.14145 11.3995 8.64593 11.847C8.16196 12.284 7.82796 12.4229 7.50001 12.4229C7.17207 12.4229 6.83807 12.284 6.3541 11.847C5.85857 11.3995 5.28727 10.7161 4.47514 9.74152L3.43214 8.48991C3.23326 8.25125 2.87857 8.21901 2.63991 8.41789C2.40125 8.61677 2.36901 8.97146 2.56789 9.21012L3.63984 10.4965C4.41629 11.4282 5.03811 12.1744 5.60013 12.6819C6.18067 13.2062 6.77412 13.5479 7.50001 13.5479C8.22591 13.5479 8.81936 13.2062 9.3999 12.6819C9.96191 12.1744 10.5837 11.4282 11.3602 10.4965L15.4321 5.61012Z" fill="#05FF00"/>
</svg>
